{"title":"The Thing(1982)MP-4[DaScubaDude]","uid":12358586,"size":1081820460,"categoryP":"video","categoryS":"movies","magnet":"?xt=urn:btih:f52d40e242bed6d41bb94f8f3ae824c008d52c20&amp;dn=The+Thing%281982%29MP-4%5BDaScubaDude%5D&amp;tr=udp%3A%2F%2Ftracker.openbittorrent.com%3A80&amp;tr=udp%3A%2F%2Fopen.demonii.com%3A1337&amp;tr=udp%3A%2F%2Ftracker.coppersurfer.tk%3A6969&amp;tr=udp%3A%2F%2Fexodus.desync.com%3A6969","seeders":0,"leechers":0,"uploader":"dascuba","files":1,"time":1441504817,"description":"The Thing (1982)\nR  |  109 min  |  Horror, Sci-Fi  |  25 June 1982 (USA)\n8.2 Your rating:   -/10   Ratings: 8.2/10 from 230,836 users   \nReviews: 891 user | 283 critic\nScientists in the Antarctic are confronted by a shape-shifting alien that assumes the appearance of the people that it kills.\n\nDirector: John Carpenter\nWriters: Bill Lancaster (screenplay), John W. Campbell Jr. (story)\nStars: Kurt Russell, Wilford Brimley, Keith David\n\nGeneral\nComplete name                         : C:The Thing (1982)THE_THING_Title1.mp4\nFormat                                   : MPEG-4\nFormat profile                           : Base Media\nCodec ID                                 : isom\nFile size                                : 1.01 GiB\nDuration                                 : 1h 48mn\nOverall bit rate                         : 1 328 Kbps\nMovie name                               : THE_THING\nGenre                                    : Science_Fiction\nWriting application                      : Lavf54.6.100\n\nVideo\nID                                       : 1\nFormat                                   : AVC\nFormat/Info                              : Advanced Video Codec\nFormat profile                           : Baseline@L3\nFormat settings, CABAC                   : No\nFormat settings, ReFrames                : 6 frames\nFormat settings, GOP                     : M=1, N=60\nCodec ID                                 : avc1\nCodec ID/Info                            : Advanced Video Coding\nDuration                                 : 1h 48mn\nBit rate                                 : 1 194 Kbps\nWidth                                    : 720 pixels\nHeight                                   : 404 pixels\nDisplay aspect ratio                     : 16:9\nFrame rate mode                          : Constant\nFrame rate                               : 29.970 fps\nColor space                              : YUV\nChroma subsampling                       : 4:2:0\nBit depth                                : 8 bits\nScan type                                : Progressive\nBits/(Pixel*Frame)                       : 0.137\nStream size                              : 927 MiB (90%)\n\nAudio\nID                                       : 2\nFormat                                   : AAC\nFormat/Info                              : Advanced Audio Codec\nFormat profile                           : LC\nCodec ID                                 : 40\nDuration                                 : 1h 48mn\nBit rate mode                            : Constant\nBit rate                                 : 128 Kbps\nChannel(s)                               : 2 channels\nChannel positions                        : Front: L R\nSampling rate                            : 44.1 KHz\nCompression mode                         : Lossy\nStream size                              : 99.2 MiB (10%)","torrent":{"xt":"urn:btih:f52d40e242bed6d41bb94f8f3ae824c008d52c20","amp;dn":"The+Thing%281982%29MP-4%5BDaScubaDude%5D","amp;tr":["udp%3A%2F%2Ftracker.openbittorrent.com%3A80","udp%3A%2F%2Fopen.demonii.com%3A1337","udp%3A%2F%2Ftracker.coppersurfer.tk%3A6969","udp%3A%2F%2Fexodus.desync.com%3A6969"],"infoHash":"f52d40e242bed6d41bb94f8f3ae824c008d52c20","infoHashBuffer":{"type":"Buffer","data":[245,45,64,226,66,190,214,212,27,185,79,143,58,232,36,192,8,213,44,32]},"announce":[],"urlList":[]}}